<?xml version="1.0" encoding="UTF-8"?>
<svg width="24px" height="24px" viewBox="0 0 24 24" version="1.1" xmlns="http://www.w3.org/2000/svg" xmlns:xlink="http://www.w3.org/1999/xlink">
    <!-- Generator: Sketch 43 (38999) - http://www.bohemiancoding.com/sketch -->
    <title>icon-af</title>
    <desc>Created with Sketch.</desc>
    <defs></defs>
    <g id="Page-2" stroke="none" stroke-width="1" fill="none" fill-rule="evenodd">
        <g id="icon-af" fill="#000000">
            <path d="M0,12 C0,5.372583 5.37112582,0 12,0 L12,0 C18.627417,0 24,5.37112582 24,12 L24,12 C24,18.627417 18.6288742,24 12,24 L12,24 C5.372583,24 0,18.6288742 0,12 L0,12 Z M14,20 L10,20 L10,16 L14,16 L14,20 L14,20 Z M14,13 L10,13 L10,5 L14,5 L14,13 L14,13 Z" id="Shape"></path>
        </g>
    </g>
</svg>