<?xml version="1.0" encoding="UTF-8"?>
<svg width="24px" height="24px" viewBox="0 0 24 24" version="1.1" xmlns="http://www.w3.org/2000/svg" xmlns:xlink="http://www.w3.org/1999/xlink">
    <!-- Generator: Sketch 43 (38999) - http://www.bohemiancoding.com/sketch -->
    <title>icon-as</title>
    <desc>Created with Sketch.</desc>
    <defs></defs>
    <g id="Page-2" stroke="none" stroke-width="1" fill="none" fill-rule="evenodd">
        <g id="icon-as" fill="#000000">
            <path d="M16.7822057,14.1485536 C17.0782911,13.6888194 17.670462,13.5903049 18.1639378,13.9186865 C18.8548038,14.4112588 19.5127714,14.9366693 20.072044,15.5605942 C21.9472518,17.5965598 23,20.2236122 23,23.0148554 C23,23.573104 22.572321,24 22.0130485,24 C21.453776,24 21.026097,23.573104 21.026097,23.0148554 C21.026097,20.7161845 20.1707391,18.5488663 18.6245151,16.8741204 C18.1310394,16.3487099 17.6046653,15.9218139 17.0453928,15.5277561 C16.5848154,15.1993745 16.4861203,14.6082877 16.7822057,14.1485536 Z M1,22.9867083 C1,18.3236904 3.89505766,14.3502736 8.00735548,12.7412041 C6.19794444,11.4933542 4.98070429,9.39171227 4.98070429,6.99452697 C4.98070429,3.1196247 8.10605063,3.55271368e-15 11.9880598,3.55271368e-15 C15.8700689,3.55271368e-15 18.9954153,3.1196247 19.0283136,6.99452697 C19.0283136,10.8694292 15.9029673,13.9890539 12.0209582,13.9890539 L11.8235679,13.9890539 C6.92170886,14.0875684 2.97390295,18.0938233 2.97390295,22.9867083 C2.97390295,23.544957 2.54622398,23.971853 1.98695148,23.971853 C1.42767897,23.971853 1,23.544957 1,22.9867083 Z" id="Combined-Shape"></path>
        </g>
    </g>
</svg>