<?xml version="1.0" encoding="UTF-8"?>
<svg width="24px" height="24px" viewBox="0 0 24 24" version="1.1" xmlns="http://www.w3.org/2000/svg" xmlns:xlink="http://www.w3.org/1999/xlink">
    <!-- Generator: Sketch 43 (38999) - http://www.bohemiancoding.com/sketch -->
    <title>icon-al</title>
    <desc>Created with Sketch.</desc>
    <defs></defs>
    <g id="Page-2" stroke="none" stroke-width="1" fill="none" fill-rule="evenodd">
        <g id="icon-al" fill="#000000">
            <path d="M23.6373518,0.359594691 C24.1168114,0.839054278 24.1168114,1.60617791 23.6613189,2.0856375 L12.3700515,13.3769342 L10.4522132,14.0002258 C10.1885162,14.0721272 9.92481932,13.8323974 10.0207171,13.5687005 L10.6440087,11.6508621 L21.9352761,0.359594691 C22.3907686,-0.119864897 23.1578922,-0.119864897 23.6373518,0.359594691 Z M22.1510388,10.6440087 C22.6065313,10.6440087 22.9661259,11.0036034 22.9421296,11.4350995 L22.9421296,20.8804592 C22.9421296,22.5825349 21.5756814,23.9490123 19.8736058,23.9490123 L3.06855307,23.9490123 C1.36644812,23.9490123 0,22.5825349 0,20.8804592 L0,4.07540649 C0,2.37333081 1.36644812,1.00685343 3.06855307,1.00685343 L13.2330729,1.00685343 C13.6885654,1.00685343 14.0481601,1.36644812 14.0481601,1.82194058 C14.0481601,2.27743304 13.6885654,2.63702773 13.2330729,2.63702773 L3.06855307,2.63702773 C2.25346591,2.63702773 1.60617791,3.30828286 1.60617791,4.09937362 L1.60617791,20.9044263 C1.60617791,21.7195135 2.27743304,22.3668015 3.06855307,22.3668015 L19.8736058,22.3668015 C20.6886929,22.3668015 21.3359516,21.6955463 21.3359516,20.9044263 L21.3359516,11.4590958 C21.3359516,11.0036034 21.6955463,10.6440087 22.1510388,10.6440087 Z" id="Combined-Shape-Copy"></path>
        </g>
    </g>
</svg>