<?xml version="1.0" encoding="UTF-8"?>
<svg width="24px" height="24px" viewBox="0 0 24 24" version="1.1" xmlns="http://www.w3.org/2000/svg" xmlns:xlink="http://www.w3.org/1999/xlink">
    <!-- Generator: Sketch 43 (38999) - http://www.bohemiancoding.com/sketch -->
    <title>icon-ao</title>
    <desc>Created with Sketch.</desc>
    <defs></defs>
    <g id="Page-2" stroke="none" stroke-width="1" fill="none" fill-rule="evenodd">
        <g id="icon-ao" fill="#000000">
            <path d="M24,2.56757792 L18.6621409,2.56757792 L18.6621409,1.49176946 C18.6621409,0.65473237 17.7902,0 16.6759607,0 L7.48987756,0 C6.37563826,0 5.50369742,0.65556817 5.50369742,1.49176946 L5.50369742,2.56757792 L0,2.56757792 L0,4.27929653 L2.08944599,4.27929653 L2.08944599,22.3302051 C2.08944599,23.2511231 2.98024003,24 4.07562614,24 L20.0892035,24 C21.1845896,24 22.0753837,23.2511231 22.0753837,22.3302051 L22.0753837,4.27929653 L23.9989914,4.27929653 L23.9989914,2.56757792 L24,2.56757792 Z M7.05882353,2.66666667 L16.9411765,2.66666667 L16.9411765,1.33333333 L7.05882353,1.33333333 L7.05882353,2.66666667 Z M19.7647059,21.2898017 C19.7647059,21.2898017 19.7598962,21.2930762 19.7464442,21.2930762 L4.23529412,21.3333333 L4.23529412,4 L19.7473836,4 L19.7647059,21.2898017 L19.7647059,21.2898017 Z M7.05882353,20 L9.88235294,20 L9.88235294,6.66666667 L7.05882353,6.66666667 L7.05882353,20 Z M14.1176471,20 L16.9411765,20 L16.9411765,6.66666667 L14.1176471,6.66666667 L14.1176471,20 Z" id="Fill-4"></path>
        </g>
    </g>
</svg>