<?xml version="1.0" encoding="UTF-8"?>
<svg width="24px" height="24px" viewBox="0 0 24 24" version="1.1" xmlns="http://www.w3.org/2000/svg" xmlns:xlink="http://www.w3.org/1999/xlink">
    <!-- Generator: Sketch 43 (38999) - http://www.bohemiancoding.com/sketch -->
    <title>icon-ak</title>
    <desc>Created with Sketch.</desc>
    <defs></defs>
    <g id="Page-2" stroke="none" stroke-width="1" fill="none" fill-rule="evenodd">
        <g id="icon-ak" fill="#000000">
            <path d="M5.68418912,2.9999748 L1.26501203,2.9999748 C0.566204743,2.9999748 0,3.54017993 0,4.20433958 L0,22.7952992 C0,23.4609373 0.569246572,24 1.26501203,24 L22.7350587,24 C23.4337953,24 24,23.4597613 24,22.7952992 L24,4.20433958 C24,3.53933991 23.4301168,2.9999412 22.7350587,2.9999412 L18.3158109,2.9999412 L18.3158109,0.594437335 C18.3158109,0.266053633 18.0357857,0 17.6842068,0 C17.3351038,0 17.0526381,0.266322442 17.0526381,0.594437335 L17.0526381,2.9999748 L6.94739728,2.9999748 L6.94739728,0.594437335 C6.94739728,0.266053633 6.66118233,0 6.31575783,0 C5.96732686,0 5.68418912,0.266322442 5.68418912,0.594437335 L5.68418912,2.9999748 Z M6.94739728,4.19993784 L17.0526381,4.19993784 L17.0526381,5.60564051 C17.0526381,5.9337218 17.3326279,6.20004424 17.6842068,6.20004424 C18.0333098,6.20004424 18.3158109,5.9337218 18.3158109,5.60564051 L18.3158109,4.19993784 L22.7350587,4.19993784 C22.73375,4.19993784 22.7368626,4.20289474 22.7368626,4.20433958 L22.7368626,22.7952992 C22.7368626,22.7976513 22.7350587,22.8000034 22.7350587,22.8000034 L1.26501203,22.8000034 C1.26624999,22.8000034 1.26317279,22.7964752 1.26317279,22.7952992 L1.26317279,4.20433958 C1.26317279,4.2017187 1.26501203,4.19993784 1.26501203,4.19993784 L5.68418912,4.19993784 L5.68418912,5.60560691 C5.68418912,5.9336882 5.96485095,6.20001064 6.31575783,6.20001064 C6.6642949,6.20001064 6.94739728,5.9336882 6.94739728,5.60560691 L6.94739728,4.19993784 Z M10.4438743,18.60356 C10.7029603,18.6175717 10.9668921,18.5320569 11.1642927,18.3445626 L18.5125748,11.3634941 C18.880813,11.0137065 18.8795751,10.4447724 18.509533,10.0931703 L18.4934396,10.0782514 C18.1246354,9.72759016 17.5251474,9.72523808 17.1562018,10.0750593 L10.4414337,16.4540631 L7.61907569,13.7734669 C7.25143875,13.4242505 6.65255203,13.4271738 6.28307584,13.777499 L6.26768985,13.7927875 C5.89761237,14.1443224 5.89697571,14.7138277 6.26337469,15.0619017 L9.71917605,18.3445626 C9.91714257,18.5332329 10.1835856,18.619991 10.4438743,18.60356 L10.4438743,18.60356 Z" id="已处理-默认"></path>
        </g>
    </g>
</svg>