<?xml version="1.0" encoding="UTF-8"?>
<svg width="24px" height="24px" viewBox="0 0 24 24" version="1.1" xmlns="http://www.w3.org/2000/svg" xmlns:xlink="http://www.w3.org/1999/xlink">
    <!-- Generator: Sketch 43 (38999) - http://www.bohemiancoding.com/sketch -->
    <title>icon-ah</title>
    <desc>Created with Sketch.</desc>
    <defs></defs>
    <g id="Page-2" stroke="none" stroke-width="1" fill="none" fill-rule="evenodd">
        <g id="icon-ah" fill="#000000">
            <path d="M0,12 C0,5.372583 5.37112582,0 12,0 L12,0 C18.627417,0 24,5.37112582 24,12 L24,12 C24,18.627417 18.6288742,24 12,24 L12,24 C5.372583,24 0,18.6288742 0,12 L0,12 Z M12.9717978,15.1380933 L9.78159144,15.1380933 L9.78159144,14.2178853 C9.78159144,13.519568 9.93868337,12.9240492 10.2528719,12.4313113 C10.5670605,11.9385734 11.0947282,11.4442112 11.835891,10.9482101 C12.6898394,10.3804194 13.2577872,9.91542532 13.5397513,9.55321398 C13.8217154,9.19100264 13.9626953,8.80106025 13.9626953,8.38337511 C13.9626953,7.90042666 13.7532394,7.51537894 13.3343213,7.2282204 C12.9154032,6.94106186 12.3152315,6.79748475 11.5337881,6.79748475 C10.0192381,6.79748475 8.60943879,7.25432102 7.30434783,8.16800728 L7.30434783,5.15285771 C8.74639278,4.50022467 10.2891161,4.17391304 11.9325639,4.17391304 C13.7774148,4.17391304 15.2113821,4.51654025 16.2345089,5.20180494 C17.2576358,5.88706963 17.7691916,6.81379465 17.7691916,7.98200779 C17.7691916,8.73253579 17.5597357,9.42431644 17.1408176,10.0573705 C16.7218995,10.6904245 16.0008878,11.3430478 14.977761,12.0152598 C14.1157564,12.5699979 13.5659347,13.0056239 13.3282792,13.3221509 C13.0906238,13.638678 12.9717978,14.018831 12.9717978,14.4626215 L12.9717978,15.1380933 Z M11.4725743,16.6956522 C12.0488123,16.6956522 12.5416399,16.8997636 12.9510721,17.3079927 C13.3605044,17.7162218 13.5652174,18.2119211 13.5652174,18.7951054 C13.5652174,19.3616274 13.3605044,19.8489956 12.9510721,20.2572247 C12.5416399,20.6654537 12.0488123,20.8695652 11.4725743,20.8695652 C10.8887543,20.8695652 10.3959267,20.663371 9.99407653,20.2509763 C9.5922264,19.8385816 9.39130435,19.3532962 9.39130435,18.7951054 C9.39130435,18.2202523 9.5922264,17.7266358 9.99407653,17.3142411 C10.3959267,16.9018464 10.8887543,16.6956522 11.4725743,16.6956522 Z" id="Shape"></path>
        </g>
    </g>
</svg>