<?xml version="1.0" encoding="UTF-8"?>
<svg width="24px" height="24px" viewBox="0 0 24 24" version="1.1" xmlns="http://www.w3.org/2000/svg" xmlns:xlink="http://www.w3.org/1999/xlink">
    <!-- Generator: Sketch 43 (38999) - http://www.bohemiancoding.com/sketch -->
    <title>icon-aj</title>
    <desc>Created with Sketch.</desc>
    <defs></defs>
    <g id="Page-2" stroke="none" stroke-width="1" fill="none" fill-rule="evenodd">
        <g id="icon-aj" fill="#000000">
            <path d="M12,21 C11.2320117,21 10.4842969,20.929834 9.75691406,20.8107715 L4.5,24 L4.5,18.6904688 C1.75939453,16.7649316 0,13.8138574 0,10.5 C0,4.70124023 5.37231445,0 12,0 C18.6276855,0 24,4.70124023 24,10.5 C24,16.2996973 18.6276855,21 12,21 L12,21 Z M12,1.5 C6.20214844,1.5 1.5,5.52922852 1.5,10.5 C1.5,13.549834 3.27416016,16.2396973 5.98154297,17.8679883 L5.93352539,21.3461426 L9.46429688,19.2239941 C10.2775488,19.398457 11.1230859,19.5 11.9990918,19.5 C17.7987598,19.5 22.4990918,15.4707715 22.4990918,10.5 C22.5,5.53016602 17.7996973,1.5 12,1.5 L12,1.5 Z M18,12 C17.1720117,12 16.5,11.3289258 16.5,10.5 C16.5,9.67107422 17.1720117,9 18,9 C18.8279883,9 19.5,9.67201172 19.5,10.5 C19.5,11.3279883 18.8279883,12 18,12 L18,12 Z M12,12 C11.1729199,12 10.5,11.3289258 10.5,10.5 C10.5,9.67107422 11.1729199,9 12,9 C12.8279883,9 13.5,9.67201172 13.5,10.5 C13.5,11.3279883 12.8279883,12 12,12 L12,12 Z M6,12 C5.17291992,12 4.5,11.3289258 4.5,10.5 C4.5,9.67107422 5.17291992,9 6,9 C6.82798828,9 7.5,9.67201172 7.5,10.5 C7.5,11.3279883 6.82798828,12 6,12 L6,12 Z" id="iconfont-xiaoxi-2-copy"></path>
        </g>
    </g>
</svg>