<?xml version="1.0" encoding="UTF-8"?>
<svg width="24px" height="24px" viewBox="0 0 24 24" version="1.1" xmlns="http://www.w3.org/2000/svg" xmlns:xlink="http://www.w3.org/1999/xlink">
    <!-- Generator: Sketch 43 (38999) - http://www.bohemiancoding.com/sketch -->
    <title>icon-ai</title>
    <desc>Created with Sketch.</desc>
    <defs></defs>
    <g id="Page-2" stroke="none" stroke-width="1" fill="none" fill-rule="evenodd">
        <g id="icon-ai" fill="#000000">
            <path d="M0,22 L24,22 L12,1 L0,22 L0,22 Z M12.2494226,17 L10.4203233,17 L10.4203233,16.3519255 C10.4203233,15.8601218 10.5103917,15.440716 10.6905312,15.0936957 C10.8706706,14.7466753 11.173208,14.3985111 11.5981524,14.0491925 C12.0877623,13.6493148 12.4133941,13.3218336 12.5750577,13.0667391 C12.7367214,12.8116447 12.817552,12.5370201 12.817552,12.2428571 C12.817552,11.9027312 12.6974608,11.6315538 12.4572748,11.4293168 C12.2170889,11.2270797 11.8729815,11.1259627 11.4249423,11.1259627 C10.5565776,11.1259627 9.74827164,11.4476986 9,12.0911801 L9,9.96770186 C9.82679397,9.50807224 10.7113117,9.27826087 11.6535797,9.27826087 C12.7113217,9.27826087 13.5334844,9.5195628 14.1200924,10.0021739 C14.7067004,10.484785 15,11.1374493 15,11.9601863 C15,12.4887604 14.8799088,12.9759605 14.6397229,13.4218012 C14.3995369,13.867642 13.9861461,14.3272647 13.3995381,14.8006832 C12.9053093,15.1913684 12.59007,15.4981666 12.4538106,15.721087 C12.3175513,15.9440073 12.2494226,16.2117376 12.2494226,16.5242857 L12.2494226,17 Z M10,18 L12,18 L12,20 L10,20 L10,18 Z" id="Shape"></path>
        </g>
    </g>
</svg>