<?xml version="1.0" encoding="UTF-8"?>
<svg width="24px" height="24px" viewBox="0 0 24 24" version="1.1" xmlns="http://www.w3.org/2000/svg" xmlns:xlink="http://www.w3.org/1999/xlink">
    <!-- Generator: Sketch 43 (38999) - http://www.bohemiancoding.com/sketch -->
    <title>icon-ap</title>
    <desc>Created with Sketch.</desc>
    <defs></defs>
    <g id="Page-2" stroke="none" stroke-width="1" fill="none" fill-rule="evenodd">
        <g id="icon-ap" fill="#000000">
            <path d="M17.1554031,8.90703259 L16.0658662,8.90703259 L15.6871355,9.28301887 C17.0250429,10.8432247 17.838765,12.8658662 17.838765,15.0819897 C17.838765,20.0082333 13.8456261,24.0013722 8.9193825,24.0013722 C3.99313894,24.0013722 0,20.0082333 0,15.0819897 C0,10.1557461 3.99313894,6.1626072 8.9193825,6.1626072 C11.135506,6.1626072 13.1567753,6.97495712 14.7169811,8.31149228 L15.0957118,7.935506 L15.0957118,6.84871355 L21.9540309,0 L24,2.04596913 L17.1554031,8.90703259 L17.1554031,8.90703259 Z M8.9193825,8.90703259 C5.50806175,8.90703259 2.74442539,11.670669 2.74442539,15.0819897 C2.74442539,18.4919383 5.50806175,21.2569468 8.9193825,21.2569468 C12.329331,21.2569468 15.0943396,18.4919383 15.0943396,15.0819897 C15.0943396,11.670669 12.329331,8.90703259 8.9193825,8.90703259 L8.9193825,8.90703259 Z" id="Shape" transform="translate(12.000000, 12.000686) scale(1, -1) translate(-12.000000, -12.000686) "></path>
        </g>
    </g>
</svg>