<?xml version="1.0" standalone="no"?>
<!DOCTYPE svg PUBLIC "-//W3C//DTD SVG 1.1//EN" "http://www.w3.org/Graphics/SVG/1.1/DTD/svg11.dtd" >
<svg xmlns="http://www.w3.org/2000/svg">
<metadata>Generated by IcoMoon</metadata>
<defs>
<font id="icomoon" horiz-adv-x="1024">
<font-face units-per-em="1024" ascent="960" descent="-64" />
<missing-glyph horiz-adv-x="1024" />
<glyph unicode="&#x20;" horiz-adv-x="512" d="" />
<glyph unicode="&#xe900;" glyph-name="icon-a" d="M950.857 155.429v512h73.143v-512h-73.143zM73.143 301.714v223.086h146.286v-223.086h-146.286zM292.571 597.443c160.293 78.993 283.282 139.603 438.857 216.271v-731.429c-155.52 76.668-278.619 137.278-438.857 216.271v298.887zM0 627.2v-409.6h184.398l620.174-281.6v1024l-620.174-332.8h-184.398z" />
<glyph unicode="&#xe901;" glyph-name="icon-aa" d="M85.333 21.333v853.333h853.333v-853.333h-853.333zM0-64h1024v1024h-1024v-1024zM298.667 234.667h128v426.667h-128v-426.667zM597.333 234.667h128v426.667h-128v-426.667z" />
<glyph unicode="&#xe902;" glyph-name="icon-ab" d="M1024 448l-358.4-298.667v248.889h-665.6v99.556h665.6v248.889z" />
<glyph unicode="&#xe903;" glyph-name="icon-ac" d="M512 140.8l-512 614.4h1024z" />
<glyph unicode="&#xe904;" glyph-name="icon-ad" d="M938.667 874.667v-853.333h-853.333v853.333h853.333zM910.222 960h-796.444c-62.578 0-113.778-51.2-113.778-113.778v-796.444c0-62.578 51.2-113.778 113.778-113.778h796.444c62.578 0 113.778 51.2 113.778 113.778v796.444c0 62.578-51.2 113.778-113.778 113.778v0 0z" />
<glyph unicode="&#xe905;" glyph-name="icon-ae" d="M910.222 960h-796.444c-62.578 0-113.778-51.2-113.778-113.778v-796.444c0-62.578 51.2-113.778 113.778-113.778h796.444c62.578 0 113.778 51.2 113.778 113.778v796.444c0 62.578-51.2 113.778-113.778 113.778v0zM398.222 163.556l-284.444 273.504 79.644 76.581 204.8-196.923 432.356 415.726 79.644-76.581-512-492.308z" />
<glyph unicode="&#xe906;" glyph-name="icon-af" d="M0 448v0c0-282.832 229.23-512 512-512v0c282.832 0 512 229.23 512 512v0c0 282.832-229.23 512-512 512v0c-282.832 0-512-229.23-512-512zM597.333 106.667h-170.667v170.667h170.667v-170.667zM597.333 405.333h-170.667v341.333h170.667v-341.333z" />
<glyph unicode="&#xe907;" glyph-name="icon-ag" d="M0 13.804h1024l-512 903.529-512-903.529zM597.333 106.667h-170.667v128h170.667v-128zM597.333 320h-170.667v256h170.667v-256z" />
<glyph unicode="&#xe908;" glyph-name="icon-ah" d="M0 448v0c0-282.832 229.23-512 512-512v0c282.832 0 512 229.23 512 512v0c0 282.832-229.23 512-512 512v0c-282.832 0-512-229.23-512-512zM553.463 314.108h-136.115v39.262c0 29.795 6.703 55.204 20.108 76.227s35.919 42.116 67.542 63.279c36.435 24.226 60.668 44.065 72.698 59.52s18.046 32.092 18.046 49.913c0 20.606-8.937 37.035-26.811 49.287s-43.481 18.378-76.823 18.378c-64.621 0-124.772-19.492-180.456-58.476v128.646c61.527 27.846 127.35 41.768 197.471 41.768 78.714 0 139.896-14.619 183.55-43.857s65.48-68.778 65.48-118.622c0-32.023-8.937-61.539-26.811-88.549s-48.637-54.856-92.29-83.537c-36.779-23.669-60.238-42.256-70.378-55.761s-15.21-29.725-15.21-48.66v-28.82zM489.497 247.652c24.586 0 45.613-8.709 63.083-26.127s26.204-38.568 26.204-63.45c0-24.172-8.734-44.966-26.204-62.384s-38.496-26.127-63.083-26.127c-24.91 0-45.937 8.798-63.083 26.393s-25.718 38.301-25.718 62.117c0 24.527 8.573 45.588 25.718 63.184s38.173 26.393 63.083 26.393z" />
<glyph unicode="&#xe909;" glyph-name="icon-ai" d="M0 21.333h1024l-512 896-512-896zM522.642 234.667h-78.042v27.651c0 20.984 3.843 38.878 11.529 53.684s20.594 29.661 38.725 44.565c20.89 17.061 34.784 31.034 41.681 41.918s10.346 22.601 10.346 35.152c0 14.512-5.124 26.082-15.372 34.711s-24.93 12.943-44.046 12.943c-37.050 0-71.538-13.727-103.464-41.183v90.602c35.277 19.611 73.016 29.416 113.219 29.416 45.13 0 80.209-10.296 105.238-30.887s37.543-48.438 37.543-83.542c0-22.552-5.124-43.34-15.372-62.362s-27.886-38.633-52.915-58.832c-21.087-16.669-34.537-29.759-40.351-39.271s-8.721-20.934-8.721-34.27v-20.297zM426.667 192h85.333v-85.333h-85.333v85.333z" />
<glyph unicode="&#xe90a;" glyph-name="icon-aj" d="M512 64c-32.768 0-64.67 2.994-95.705 8.074l-224.295-136.074v226.54c-116.933 82.156-192 208.069-192 349.46 0 247.414 229.219 448 512 448s512-200.586 512-448c0-247.454-229.219-448-512-448v0zM512 896c-247.375 0-448-171.914-448-384 0-130.126 75.698-244.894 191.213-314.368l-2.049-148.401 150.646 90.545c34.699-7.444 70.775-11.776 108.151-11.776 247.453 0 448 171.914 448 384 0.039 212.046-200.507 384-447.961 384v0zM768 448v0c35.328 0 64 28.672 64 64s-28.672 64-64 64c-35.328 0-64-28.633-64-64s28.672-64 64-64zM512 448v0c35.328 0 64 28.672 64 64s-28.672 64-64 64c-35.289 0-64-28.633-64-64s28.711-64 64-64zM256 448v0c35.327 0 64 28.672 64 64s-28.673 64-64 64c-35.289 0-64-28.633-64-64s28.711-64 64-64z" />
<glyph unicode="&#xe90b;" glyph-name="icon-ak" d="M242.525 832.001h-188.552c-29.816 0-53.974-23.049-53.974-51.386v-793.214c0-28.401 24.288-51.401 53.974-51.401h916.055c29.813 0 53.971 23.050 53.971 51.401v793.214c0 28.373-24.315 51.388-53.971 51.388h-188.555v102.635c0 14.011-11.948 25.363-26.948 25.363-14.895 0-26.947-11.363-26.947-25.363v-102.636h-431.157v102.636c0 14.011-12.212 25.363-26.95 25.363-14.866 0-26.947-11.363-26.947-25.363v-102.636zM296.422 780.803h431.157v-59.977c0-13.998 11.946-25.361 26.947-25.361 14.895 0 26.948 11.363 26.948 25.361v59.977h188.555c-0.056 0 0.077-0.126 0.077-0.188v-793.214c0-0.1-0.077-0.201-0.077-0.201h-916.055c0.053 0-0.078 0.151-0.078 0.201v793.214c0 0.112 0.078 0.188 0.078 0.188h188.552v-59.975c0-13.998 11.975-25.361 26.947-25.361 14.871 0 26.95 11.363 26.95 25.361v59.975zM445.605 166.248v0c-11.106-0.701-22.474 3.001-30.92 11.051l-147.448 140.060c-15.633 14.851-15.606 39.15 0.184 54.149l0.656 0.652c15.764 14.947 41.317 15.072 57.003 0.172l120.421-114.372 286.497 272.171c15.742 14.926 41.32 14.825 57.055-0.136l0.687-0.637c15.788-15.002 15.841-39.276 0.13-54.2l-313.527-297.859c-8.422-8-19.684-11.648-30.738-11.051z" />
<glyph unicode="&#xe90c;" glyph-name="icon-al" d="M1008.527 944.657c-20.457 20.457-53.188 20.457-72.622 0l-481.761-481.761-26.594-81.828c-4.092-11.251 7.159-21.48 18.411-18.412l81.828 26.594 481.761 481.762c19.434 20.457 19.434 53.188-1.023 73.644zM945.111 505.856c-19.434 0-34.777-15.343-34.777-34.777v-403.001c0-33.754-27.616-62.395-62.393-62.395h-717.016c-33.754 0-62.395 27.618-62.395 62.395v717.016c0 33.753 27.618 62.393 62.395 62.393h433.686c19.434 0 34.777 15.343 34.777 34.777s-15.343 34.777-34.777 34.777h-433.686c-72.623 0-130.925-58.303-130.925-130.925v-717.016c0-72.622 58.302-130.925 130.925-130.925h717.016c72.622 0 130.924 58.303 130.924 130.925v403.002c1.024 18.411-14.319 33.753-33.753 33.753z" />
<glyph unicode="&#xe90d;" glyph-name="icon-am" d="M0 960h1024v-1024h-409.6v73.335h336.167v878.482h-877.621v-337.417h-72.946v409.6zM493.466 117.504l-118.886 118.938 282.497 282.576-74.138 74.138-282.497-282.576-118.938 118.886-181.504-493.466 493.466 181.504z" />
<glyph unicode="&#xe90e;" glyph-name="icon-an" d="M85.333 21.333v853.333h853.333v-853.333h-853.333zM0-64h1024v1024h-1024v-1024zM457.143 393.143h-164.571v109.714h164.571v164.571h109.714v-164.571h164.571v-109.714h-164.571v-164.571h-109.714v164.571z" />
<glyph unicode="&#xe90f;" glyph-name="icon-ao" d="M1024 850.45h-227.749v45.901c0 35.714-37.203 63.649-84.744 63.649h-391.94c-47.541 0-84.744-27.971-84.744-63.649v-45.901h-234.824v-73.033h89.15v-770.172c0-39.293 38.007-71.245 84.744-71.245h683.246c46.736 0 84.744 31.952 84.744 71.245v770.172h82.074v73.033h0.043zM301.176 846.222v56.889h421.647v-56.889h-421.647zM843.294 51.635c0 0-0.205-0.14-0.779-0.14l-661.809-1.718v739.556h661.849l0.739-737.698zM301.176 106.667v568.889h120.471v-568.889h-120.471zM602.353 106.667v568.889h120.471v-568.889h-120.471z" />
<glyph unicode="&#xe910;" glyph-name="icon-ap" d="M731.964 315.975h-46.487l-16.159 16.042c57.084 66.569 91.803 152.868 91.803 247.423 0 210.186-170.374 380.56-380.56 380.56s-380.56-170.374-380.56-380.56c0-210.186 170.374-380.56 380.56-380.56 94.555 0 180.795 34.66 247.364 91.686l16.159-16.042v-46.37l292.622-292.212 87.295 87.295-292.036 292.739zM380.56 315.975c-145.55 0-263.465 117.915-263.465 263.465 0 145.491 117.915 263.465 263.465 263.465 145.491 0 263.465-117.974 263.465-263.465 0-145.55-117.974-263.465-263.465-263.465v0z" />
<glyph unicode="&#xe911;" glyph-name="icon-aq" d="M298.667 490.667h426.667v-85.333h-426.667v85.333z" />
<glyph unicode="&#xe912;" glyph-name="icon-ar" d="M464.593 495.407h-165.926v-94.815h165.926v-165.926h94.815v165.926h165.926v94.815h-165.926v165.926h-94.815v-165.926z" />
<glyph unicode="&#xe913;" glyph-name="icon-as-copy" d="M1024 857.6l-102.4 102.4-409.6-409.6-409.6 409.6-102.4-102.4 409.6-409.6-409.6-409.6 102.4-102.4 409.6 409.6 409.6-409.6 102.4 102.4-409.6 409.6z" />
<glyph unicode="&#xe914;" glyph-name="icon-as" d="M716.041 356.328c-12.633-19.615-8.422-44.835 11.229-58.846 23.862-16.813 46.321-35.027 67.376-57.445 65.972-71.456 102.467-163.928 102.467-262.005 0-23.819 18.248-42.033 42.11-42.033s42.11 18.214 42.11 42.033c0 119.093-44.917 231.181-124.926 318.048-23.862 26.621-51.936 49.038-81.413 70.055-21.055 14.011-46.321 9.808-58.954-9.808zM42.667-20.766c0-23.819 18.248-42.033 42.11-42.033s42.11 18.214 42.11 42.033c0 208.763 168.44 379.697 377.586 383.9h8.422c165.632 0 298.98 133.104 298.98 298.433-1.404 165.329-134.752 298.433-300.384 298.433s-298.981-133.104-298.981-298.433c0-102.28 51.936-191.95 129.137-245.192-175.458-68.654-298.981-238.186-298.981-437.142z" />
<glyph unicode="&#xea34;" glyph-name="arrow-right" d="M992 448l-480 480v-288h-512v-384h512v-288z" />
<glyph unicode="&#xea38;" glyph-name="arrow-left" d="M32 448l480-480v288h512v384h-512v288z" />
</font>
</defs>
</svg>
